<svg xmlns="http://www.w3.org/2000/svg" viewBox="0 0 760.97693 45.049155">
  <path d="M0 0l10.84 19.866H1.705c-.418 0-.756.337-.756.756v3.472c0 .42.33.756.75.756h9.6L.28 45.05l3.096-.394s24.466-3.085 34.35-4.948c5.295-.997 14.408-4.824 22.445-8.42C66.4 28.5 71.8 25.9 73.95 24.85c85.425 0 171.315-.344 256.947.067l7.168 4.882 7.126-6.14s4.12 4 4.76 4.12c.65.12 21.87-6.15 21.56-6.59-.31-.44-21.1-7.02-22.51-6.74-1.41.29-4.81 4.47-4.81 4.47l-6.63-4.66-6.36 5.725c-85.71.024-171.49.22-257.09-.14-1.663-.78-7.34-3.428-14.164-6.366-8.06-3.47-17.21-7.17-22.48-8.16C27.56 3.474 3.096.39 3.096.39L0 0zm760.977 0l-3.095.39s-24.464 3.086-34.35 4.95c-5.266.99-14.416 4.69-22.477 8.16-6.824 2.94-12.5 5.585-14.164 6.366-85.6.36-171.38.165-257.09.14l-6.36-5.724-6.63 4.653s-3.4-4.18-4.81-4.468c-1.41-.288-22.2 6.294-22.51 6.734-.31.44 20.91 6.71 21.56 6.59.646-.12 4.76-4.12 4.76-4.12l7.127 6.14 7.17-4.88c85.63-.41 171.52-.06 256.947-.06 2.157 1.05 7.55 3.65 13.78 6.44 8.036 3.6 17.15 7.427 22.443 8.42 9.882 1.867 34.35 4.95 34.35 4.95l3.093.395-11.02-20.2h9.597c.42 0 .76-.337.76-.756v-3.47c0-.42-.34-.758-.755-.758h-9.133L760.97 0zM5.82 4.004c2.69.344 12.808 1.628 21.573 2.93l7.327 12.69-20.5-.222-8.4-15.398zm749.338 0l-8.4 15.398-20.5.223 7.326-12.69c8.765-1.303 18.883-2.587 21.574-2.93zM33.464 7.88c1.233.203 2.382.403 3.39.593 1.05.198 2.378.557 3.89 1.03l5.92 10.252-6.384-.07L33.464 7.88zm694.05 0l-6.817 11.806-6.383.07 5.92-10.254c1.51-.472 2.84-.83 3.89-1.03 1.006-.19 2.156-.39 3.39-.593zm-390.08 10.612l3.918 3.126-3.394 3.855-3.8-3.554 3.276-3.43zm86.106 0l3.276 3.428-3.798 3.555-3.394-3.856 3.917-3.13zm-376.434 6.52L41.04 35.52c-1.518.49-2.852.858-3.904 1.056-1.007.19-2.157.39-3.39.594l6.946-12.03 6.414-.124zm666.765 0l6.42.124 6.95 12.03c-1.23-.203-2.38-.403-3.39-.593-1.05-.198-2.38-.567-3.9-1.056l-6.06-10.504zm-678.76.23l-7.43 12.87c-8.76 1.3-18.88 2.585-21.57 2.93l8.4-15.404 20.6-.396zm690.77 0l20.6.396 8.41 15.402c-2.69-.344-12.81-1.628-21.57-2.93l-7.43-12.868z"/>
</svg>
