<svg xmlns="http://www.w3.org/2000/svg" viewBox="0 0 259.80069 259.80081">
  <path d="M129.9 0C94.7 0 90.278.1 76.475.8c-13.84.603-23.308 2.818-31.555 6.036v-.002c-8.55 3.32-15.827 7.768-23.072 15.014-7.246 7.246-11.694 14.52-15.014 23.07h.002C3.616 53.168 1.403 62.735.8 76.478.2 90.28 0 94.7 0 129.9c0 35.2.1 39.623.8 53.426.603 13.84 2.817 23.31 6.036 31.557h-.002c3.32 8.55 7.768 15.824 15.014 23.07 7.245 7.246 14.52 11.694 23.072 15.014v-.002c8.25 3.22 17.815 5.433 31.558 6.035 13.8.6 18.22.8 53.422.8 35.198 0 39.623-.1 53.422-.8 13.843-.602 23.313-2.816 31.56-6.035v.002c8.552-3.32 15.827-7.768 23.073-15.014 7.246-7.246 11.692-14.52 15.012-23.07h-.002c3.22-8.25 5.433-17.817 6.035-31.56.6-13.8.8-18.22.8-53.423 0-35.197-.1-39.622-.8-53.42v-.005c-.602-13.84-2.817-23.31-6.035-31.557h.002c-3.32-8.55-7.766-15.825-15.012-23.07-7.246-7.246-14.52-11.694-23.072-15.014v.002c-8.25-3.22-17.818-5.433-31.56-6.035-13.8-.6-18.22-.8-53.423-.8zm-.1 24.2c34.5 0 38.68.1 52.276.8h.002c12.553.598 19.377 2.68 23.838 4.465h.004l.002.002c5.945 2.28 10.264 5.127 14.725 9.588 4.46 4.46 7.21 8.677 9.59 14.728 1.787 4.567 3.867 11.288 4.464 23.84.6 13.7.8 17.78.8 52.278 0 34.5-.2 38.68-.8 52.28-.596 12.553-2.68 19.376-4.463 23.837v.004l-.002.003c-2.278 5.945-5.127 10.264-9.587 14.724-4.46 4.46-8.678 7.21-14.73 9.59-4.566 1.787-11.287 3.867-23.84 4.465-13.698.6-17.68.8-52.276.8-34.598 0-38.677-.1-52.274-.8h-.002c-12.554-.597-19.378-2.68-23.838-4.464h-.004l-.002-.002c-5.945-2.28-10.264-5.127-14.725-9.588-4.46-4.46-7.21-8.676-9.59-14.726v-.002c-1.787-4.567-3.867-11.288-4.465-23.838v-.002c-.6-13.7-.8-17.78-.8-52.277 0-34.5.1-38.678.8-52.275v-.002c.598-12.553 2.68-19.377 4.465-23.838v-.004h.002c2.28-5.946 5.126-10.265 9.587-14.725 4.46-4.46 8.676-7.21 14.727-9.59C58.25 27.677 64.97 25.597 77.522 25c13.7-.6 17.78-.8 52.28-.8zm69.1 20.6c-8.83 0-16 7.17-16 16 0 8.832 7.17 16 16 16s16-7.168 16-16c0-8.83-7.17-16-16-16zm-69.1 18.1c-36.97 0-67 30.03-67 67s30.03 67 67 67 67-30.03 67-67-30.03-67-67-67zm0 24.3c23.632 0 42.7 19.07 42.7 42.7 0 23.53-19.17 42.7-42.7 42.7s-42.698-19.07-42.698-42.7c0-23.53 19.07-42.7 42.7-42.7z"/>
</svg>
